<svg xmlns="http://www.w3.org/2000/svg" viewBox="0 0 512 512" width="100" height="100">
  <path fill="#ff6b6b" d="M256 0C114.6 0 0 114.6 0 256s114.6 256 256 256 256-114.6 256-256S397.4 0 256 0zm0 464c-114.7 0-208-93.3-208-208S141.3 48 256 48s208 93.3 208 208-93.3 208-208 208z"/>
  <path fill="#ff6b6b" d="M368 128c-26.5 0-48 21.5-48 48s21.5 48 48 48 48-21.5 48-48-21.5-48-48-48zm-224 0c-26.5 0-48 21.5-48 48s21.5 48 48 48 48-21.5 48-48-21.5-48-48-48z"/>
  <path fill="#ff6b6b" d="M256 288c-45.9 0-88.2 27.5-106.8 70.1-3.8 8.8-1.7 19.1 5.2 25.8 55.3 55.3 148.9 55.3 204.2 0 6.9-6.9 9-17.3 5.2-25.8-18.6-42.6-60.8-70.1-106.8-70.1z"/>
  <path fill="#ff6b6b" d="M175.6 176c-17.7 0-32 14.3-32 32s14.3 32 32 32 32-14.3 32-32-14.3-32-32-32zm160.8 0c-17.7 0-32 14.3-32 32s14.3 32 32 32 32-14.3 32-32-14.3-32-32-32z"/>
</svg>